<?xml version="1.0" encoding="UTF-8" standalone="no"?>
<!-- Created with Inkscape (http://www.inkscape.org/) -->

<svg
   version="1.1"
   id="svg1"
   width="640"
   height="640"
   viewBox="0 0 640 640"
   xmlns="http://www.w3.org/2000/svg"
   xmlns:svg="http://www.w3.org/2000/svg">
  <defs
     id="defs1" />
  <g
     id="g1">
    <g
       id="g3">
      <path
         style="fill:#ebd8a5"
         d="m 374.87179,500.76923 v -20 h 26.66667 26.66667 V 307.4359 134.10256 h 26.66666 26.66667 V 327.4359 520.76923 h -53.33333 -53.33334 z m -200,-213.33333 V 134.10256 h 80 80 V 287.4359 440.76923 h -20 -20 V 374.10256 307.4359 h -40 -40 v 66.66666 66.66667 h -20 -20 z m 120,-66.66667 v -46.66667 h -40 -40 v 46.66667 46.66667 h 40 40 z"
         id="path4" />
      <path
         style="fill:#212121"
         d="M 1.5384604,320.76923 V 0.7692306 h 319.9999996 320 v 319.9999994 320 h -320 H 1.5384604 Z M 481.53846,134.10256 h -53.33333 v 346.66667 h -53.33334 v 40 H 481.53846 Z M 214.87179,307.4359 h 80 v 133.33333 h 40 V 134.10256 h -160 v 306.66667 h 40 z m 0,-133.33334 h 80 v 93.33334 h -80 z"
         id="path3" />
    </g>
  </g>
</svg>
