<svg version="1.1" id="Layer_1" xmlns="http://www.w3.org/2000/svg" xmlns:xlink="http://www.w3.org/1999/xlink" x="0px" y="0px"
	 width="100%" viewBox="0 0 480 480" enable-background="new 0 0 480 480" xml:space="preserve">
<path fill="#222222" opacity="1.000000" stroke="none" 
	d="
M316.000000,481.000000 
	C210.666672,481.000000 105.833336,481.000000 1.000000,481.000000 
	C1.000000,321.000000 1.000000,161.000000 1.000000,1.000000 
	C161.000000,1.000000 321.000000,1.000000 481.000000,1.000000 
	C481.000000,161.000000 481.000000,321.000000 481.000000,481.000000 
	C426.166656,481.000000 371.333344,481.000000 316.000000,481.000000 
M221.097519,330.527008 
	C221.391769,330.629120 221.686005,330.731232 222.728516,330.977356 
	C223.485809,330.929352 224.243088,330.881348 225.927750,330.977905 
	C233.955551,330.929718 241.983368,330.881531 250.526947,330.902527 
	C250.629074,330.608276 250.731201,330.314026 250.977905,329.089844 
	C250.985168,255.387772 250.993088,181.685715 250.992783,107.983643 
	C250.992783,106.989220 250.888794,105.994797 250.977341,104.254272 
	C250.929337,103.499115 250.881332,102.743958 250.902481,101.472977 
	C250.608246,101.370872 250.313995,101.268768 249.089813,101.022095 
	C210.056137,101.070290 171.022476,101.118477 131.472992,101.097511 
	C131.370880,101.391754 131.268768,101.685989 131.022095,102.910179 
	C131.014832,177.615997 131.006912,252.321823 131.007217,327.027649 
	C131.007217,328.022156 131.111206,329.016663 131.097519,330.527008 
	C131.391769,330.629120 131.686020,330.731232 132.728516,330.977356 
	C133.485809,330.929352 134.243088,330.881348 135.927750,330.977905 
	C143.955551,330.929718 151.983368,330.881531 160.526962,330.902527 
	C160.629089,330.608276 160.731216,330.314056 160.977905,329.089844 
	C160.977905,296.496277 160.977905,263.902710 160.977905,231.003036 
	C180.554153,231.003036 199.522018,230.961975 218.488007,231.130249 
	C219.389297,231.138229 220.274139,233.000763 221.022095,234.927139 
	C221.070282,266.621826 221.118469,298.316498 221.097519,330.527008 
M321.000000,310.500000 
	C321.000000,327.255493 321.000000,344.011017 321.000000,361.245178 
	C307.281708,361.245178 294.216705,361.245178 281.227173,361.245178 
	C281.227173,371.341766 281.227173,380.949371 281.227173,390.739563 
	C307.843353,390.739563 334.231964,390.739563 360.724915,390.739563 
	C360.724915,294.102722 360.724915,197.726547 360.724915,101.311905 
	C347.389374,101.311905 334.331024,101.311905 321.000000,101.311905 
	C321.000000,170.915619 321.000000,240.207809 321.000000,310.500000 
z"/>
<path fill="#ECD9A6" opacity="1.000000" stroke="none" 
	d="
M221.166656,233.999619 
	C220.274139,233.000763 219.389297,231.138229 218.488007,231.130249 
	C199.522018,230.961975 180.554153,231.003036 160.977905,231.003036 
	C160.977905,263.902710 160.977905,296.496277 160.753326,329.674408 
	C160.334351,330.430725 160.161819,330.622162 160.011169,330.833344 
	C151.983368,330.881531 143.955551,330.929718 135.463928,330.447540 
	C135.000122,257.272797 134.998535,184.628418 135.002686,111.984039 
	C135.003082,105.022339 135.019699,105.004341 141.866776,105.003151 
	C178.188965,104.996826 214.511154,105.000298 250.833344,105.000374 
	C250.888794,105.994797 250.992783,106.989220 250.992783,107.983643 
	C250.993088,181.685715 250.985168,255.387772 250.753326,329.674408 
	C250.334351,330.430725 250.161819,330.622162 250.011169,330.833344 
	C241.983368,330.881531 233.955551,330.929718 225.463928,330.447540 
	C224.999649,300.000916 225.005066,270.084625 224.989059,240.168365 
	C224.987564,237.364502 225.448669,234.189346 221.166656,233.999619 
M162.036194,201.954041 
	C163.261566,202.962463 164.477631,204.835907 165.713699,204.849182 
	C183.362152,205.039108 201.013565,205.025620 218.663681,204.941177 
	C222.776199,204.921509 225.049072,202.882309 225.030472,198.407776 
	C224.948166,178.592773 225.120483,158.775330 224.824722,138.964386 
	C224.789795,136.625137 222.442200,134.320435 220.684143,131.253647 
	C200.829834,131.253647 180.975510,131.253647 161.000885,131.253647 
	C161.000885,153.884628 160.987579,175.996780 161.043243,198.108749 
	C161.045807,199.128860 161.666702,200.147385 162.036194,201.954041 
z"/>
<path fill="#ECD9A6" opacity="1.000000" stroke="none" 
	d="
M321.000000,310.000000 
	C321.000000,240.207809 321.000000,170.915619 321.000000,101.311905 
	C334.331024,101.311905 347.389374,101.311905 360.724915,101.311905 
	C360.724915,197.726547 360.724915,294.102722 360.724915,390.739563 
	C334.231964,390.739563 307.843353,390.739563 281.227173,390.739563 
	C281.227173,380.949371 281.227173,371.341766 281.227173,361.245178 
	C294.216705,361.245178 307.281708,361.245178 321.000000,361.245178 
	C321.000000,344.011017 321.000000,327.255493 321.000000,310.000000 
z"/>
<path fill="#ECD9A6" opacity="1.000000" stroke="none" 
	d="
M250.905334,104.627319 
	C214.511154,105.000298 178.188965,104.996826 141.866776,105.003151 
	C135.019699,105.004341 135.003082,105.022339 135.002686,111.984039 
	C134.998535,184.628418 135.000122,257.272797 135.000244,330.375244 
	C134.243088,330.881348 133.485809,330.929352 132.234802,330.753052 
	C131.569366,330.334290 131.377884,330.161774 131.166656,330.011169 
	C131.111206,329.016663 131.007217,328.022156 131.007217,327.027649 
	C131.006912,252.321823 131.014832,177.615997 131.246674,102.325623 
	C131.665665,101.569336 131.838181,101.377861 131.988800,101.166664 
	C171.022476,101.118477 210.056137,101.070290 249.674362,101.246674 
	C250.430634,101.665703 250.622116,101.838211 250.833344,101.988800 
	C250.881332,102.743958 250.929337,103.499115 250.905334,104.627319 
z"/>
<path fill="#ECD9A6" opacity="1.000000" stroke="none" 
	d="
M221.094376,234.463379 
	C225.448669,234.189346 224.987564,237.364502 224.989059,240.168365 
	C225.005066,270.084625 224.999649,300.000916 225.000244,330.375244 
	C224.243088,330.881348 223.485809,330.929352 222.234802,330.753052 
	C221.569366,330.334290 221.377884,330.161774 221.166656,330.011169 
	C221.118469,298.316498 221.070282,266.621826 221.094376,234.463379 
z"/>
<path fill="#ECD9A6" opacity="1.000000" stroke="none" 
	d="
M131.730896,101.132088 
	C131.838181,101.377861 131.665665,101.569336 131.318954,101.860649 
	C131.268768,101.685989 131.370880,101.391754 131.730896,101.132088 
z"/>
<path fill="#ECD9A6" opacity="1.000000" stroke="none" 
	d="
M250.867920,101.730888 
	C250.622116,101.838211 250.430634,101.665703 250.139343,101.318954 
	C250.313995,101.268768 250.608246,101.370872 250.867920,101.730888 
z"/>
<path fill="#ECD9A6" opacity="1.000000" stroke="none" 
	d="
M131.132080,330.269104 
	C131.377884,330.161774 131.569366,330.334290 131.860687,330.681030 
	C131.686020,330.731232 131.391769,330.629120 131.132080,330.269104 
z"/>
<path fill="#ECD9A6" opacity="1.000000" stroke="none" 
	d="
M160.269073,330.867920 
	C160.161819,330.622162 160.334351,330.430725 160.681046,330.139404 
	C160.731216,330.314056 160.629089,330.608276 160.269073,330.867920 
z"/>
<path fill="#ECD9A6" opacity="1.000000" stroke="none" 
	d="
M221.132080,330.269104 
	C221.377884,330.161774 221.569366,330.334290 221.860687,330.681030 
	C221.686005,330.731232 221.391769,330.629120 221.132080,330.269104 
z"/>
<path fill="#ECD9A6" opacity="1.000000" stroke="none" 
	d="
M250.269058,330.867920 
	C250.161819,330.622162 250.334351,330.430725 250.681030,330.139404 
	C250.731201,330.314026 250.629074,330.608276 250.269058,330.867920 
z"/>
<path fill="#222222" opacity="1.000000" stroke="none" 
	d="
M161.999619,201.166656 
	C161.666702,200.147385 161.045807,199.128860 161.043243,198.108749 
	C160.987579,175.996780 161.000885,153.884628 161.000885,131.253647 
	C180.975510,131.253647 200.829834,131.253647 220.853119,132.090454 
	C221.022079,155.521179 221.022079,178.115082 221.022079,201.166656 
	C200.931107,201.166656 181.465363,201.166656 161.999619,201.166656 
z"/>
<path fill="#ECD9A6" opacity="1.000000" stroke="none" 
	d="
M162.017914,201.560349 
	C181.465363,201.166656 200.931107,201.166656 221.022079,201.166656 
	C221.022079,178.115082 221.022079,155.521179 221.094360,132.463486 
	C222.442200,134.320435 224.789795,136.625137 224.824722,138.964386 
	C225.120483,158.775330 224.948166,178.592773 225.030472,198.407776 
	C225.049072,202.882309 222.776199,204.921509 218.663681,204.941177 
	C201.013565,205.025620 183.362152,205.039108 165.713699,204.849182 
	C164.477631,204.835907 163.261566,202.962463 162.017914,201.560349 
z"/>
</svg>